<svg width="50" height="108" viewBox="0 0 50 108" fill="none" xmlns="http://www.w3.org/2000/svg">
<path d="M9.49999 47.5C6.85833 47.4146 0.314695 34.6656 3.49996 23.5C-0.402225 18.2204 6.31597 1.18781 6.99998 1.49999C12.0166 3.87979 15.86 5.27936 20 11.5" stroke="black"/>
<ellipse cx="18" cy="26.5" rx="2" ry="3.5" fill="black"/>
<path d="M9.49996 47.5C5.58731 68.2702 3.86334 79.893 14 100M14 100V77M14 100C11.5215 98.8902 8.5 103.5 9.49996 105C10.4999 106.5 12.7409 105.701 14 105.912M21 77C20.566 88.1213 20.3269 94.3545 21 105C20.1931 105.928 19.0846 106.351 17 106.263M14 105.912V102.5M14 105.912C15.1835 106.111 16.1693 106.228 17 106.263M17 106.263V102.5" stroke="black"/>
<path d="M6.49997 74C-0.327339 81.6325 -0.290947 87.1293 6.49997 97C4.52071 97.0125 2.29708 100.875 2.49997 103C3.25535 103.245 3.91712 103.443 4.49997 103.597M8.99996 103C8.22295 104.046 7.22218 104.312 4.49997 103.597M4.49997 103.597L5.49996 101.5M10.5 105V106" stroke="black"/>
<path d="M17 106H14" stroke="black"/>
<path d="M18.5 35.5C21.0386 39.0129 22.4615 38.3018 25 35.5" stroke="black"/>
<path d="M40.5001 47.439C42.7388 47.449 49.5702 34.6121 46.5002 23.21C48.3335 16.4392 45.4529 8.24398 43.0002 1C38.0284 2.30955 34.9074 3.79025 30.0001 11.0954" stroke="black"/>
<ellipse cx="2" cy="3.53341" rx="2" ry="3.53341" transform="matrix(-1 0 0 1 34.0001 22.7052)" fill="black"/>
<path d="M40.5001 47.439C44.4127 68.4074 46.1367 80.1412 36.0001 100.44M36.0001 100.44V77.2206M36.0001 100.44C38.4786 99.3197 41.5001 103.974 40.5001 105.488C39.5001 107.002 37.2592 106.196 36.0001 106.409M29.0001 77.2206C29.434 88.448 29.6732 94.7407 29.0001 105.488C29.807 106.424 30.9154 106.852 33.0001 106.763M36.0001 106.409V102.964M36.0001 106.409C34.8166 106.609 33.8308 106.727 33.0001 106.763M33.0001 106.763V102.964" stroke="black"/>
<path d="M43.5001 74.192C50.3274 81.8973 50.291 87.4466 43.5001 97.4115C45.4794 97.4241 47.703 101.324 47.5001 103.469C46.7447 103.716 46.0829 103.916 45.5001 104.071M41.0001 103.469C41.7771 104.525 42.7779 104.793 45.5001 104.071M45.5001 104.071L44.5001 101.954M39.5001 105.488V106.497" stroke="black"/>
<path d="M33.0001 106.497H36.0001" stroke="black"/>
<path d="M31.5001 35.3245C28.9615 38.871 27.5385 38.1531 25.0001 35.3245" stroke="black"/>
<path d="M20 11.5C24.0014 10.0007 26.055 9.98508 29.5 11.5M25.5 36V32.5" stroke="black"/>
<path d="M28.9874 31.6817C29.1192 33.3333 27.4409 34.8147 25.2387 34.9905C23.0366 35.1663 21.1446 33.9699 21.0127 32.3183C20.8809 30.6667 21.5227 29.019 24.7613 29.0095C28 29 28.8555 30.0301 28.9874 31.6817Z" fill="#D9D9D9"/>
<path d="M28.9874 31.6817C29.1192 33.3333 27.4409 34.8147 25.2387 34.9905C23.0366 35.1663 21.1446 33.9699 21.0127 32.3183C20.8809 30.6667 21.5227 29.019 24.7613 29.0095C28 29 28.8555 30.0301 28.9874 31.6817Z" fill="black"/>
<path d="M20.5 38C20.9474 39.1274 21.0369 39 21.7685 41C22.5 43 26.361 46.7668 29 38M25 36.5V41" stroke="black"/>
<path d="M20.5 101.5H29" stroke="black"/>
</svg>
