<svg width="72" height="87" viewBox="0 0 72 87" fill="none" xmlns="http://www.w3.org/2000/svg">
<ellipse cx="37.567" cy="16.7857" rx="1.45361" ry="2.42857" fill="#D63C61"/>
<ellipse cx="52.1031" cy="16.7857" rx="1.45361" ry="2.42857" fill="#D63C61"/>
<path d="M41.201 22.8571C41.201 23.3429 35.8711 24.6786 33.2062 25.2857M41.9278 25.2857L36.8402 27.1071" stroke="#D63C61"/>
<path d="M48.4691 20.4286C45.4614 20.3153 44.2136 20.3615 41.9278 20.4286L45.186 23.6806L48.4691 20.4286Z" fill="white"/>
<path d="M50.2736 23.6806C50.2736 24.1663 55.6035 24.2877 58.2684 24.8948M49.5468 26.1091L55.3612 26.7163M45.186 23.6806L48.4691 20.4286C45.4614 20.3153 44.2136 20.3615 41.9278 20.4286L45.186 23.6806ZM45.186 23.6806V26.1091" stroke="#D63C61"/>
<path d="M33.933 62.3214C35.9323 68.8581 36.7599 72.4953 35.3866 78.7143M44.1083 65.3571C43.6502 70.3228 43.6529 73.1118 44.8351 78.1071M54.2835 62.3214C52.3019 68.2501 52.555 71.5731 53.5567 77.5M44.8351 79.9286C49.9987 82.0002 48.7224 84.4064 41.201 86M55.0103 79.9286C58.9392 83.754 56.7872 85.2691 49.9227 86" stroke="#D63C61"/>
<path d="M65.3457 10.9086L66.7993 20L65.1856 26.3219L61.7117 30.7257C66.2095 41.8243 70.5038 48.2658 70.4334 58.8C71.4975 66.7919 71.4546 71.2627 66.7993 79.1676L63.0052 82.3571" stroke="#D63C61"/>
<path d="M27.211 11L26.1284 19L27.3303 26.697L29.9174 31.1818C26.5677 42.4846 23.3696 49.0447 23.422 59.7727C22.6295 67.9117 22.6614 72.4648 26.1284 80.5152L31 85" stroke="#D63C61"/>
<path d="M65.268 10.9086C67.3778 7.36896 67.5493 5.09742 67.2883 1C63.7242 2.37882 61.7031 3.43259 58 6.50476M65.1079 4.30286L60.747 7.60571" stroke="#D63C61"/>
<path d="M27.1137 10.9086C25.0039 7.36896 24.8324 5.09742 25.0934 1C28.6576 2.37882 30.6786 3.43259 34.3817 6.50476M27.2739 4.30286L31.6347 7.60571" stroke="#D63C61"/>
<path d="M21.5773 65.9643C19.7792 66.3892 18.7615 66.6563 17.9433 64.1429C17 52.5 17.6328 48.6564 14 38C10.8033 33.9769 7.14761 33.5122 0.5 33.7857M21.5773 70.8214C14.0029 69.6268 13.9618 67.6233 12 64.1429C12.3821 53.143 12.5588 49.3014 9.94845 40.4643C9.21596 38.0864 4.86082 36.8214 3.40722 36.8214C1.95361 36.8214 4.13402 36.8214 4.13402 36.8214" stroke="#D63C61"/>
<path d="M34 6.24835C43.7821 4.82076 49.1684 4.36269 58 6.24835" stroke="#D63C61"/>
</svg>
