<svg width="47" height="98" viewBox="0 0 47 98" fill="none" xmlns="http://www.w3.org/2000/svg">
<path d="M6.65182 29.8207C-7.34818 -8.67929 8.1518 -7.17929 15.6518 25.8207" stroke="#D63C61"/>
<path d="M9.49001 15.2229C10.8962 19.4115 11.1873 23.0919 10.1402 23.4435C9.09308 23.795 7.10424 20.6846 5.69802 16.496C4.29179 12.3075 4.00069 8.62706 5.04782 8.2755C6.09495 7.92394 8.08379 11.0344 9.49001 15.2229Z" fill="#FFC2D0"/>
<path d="M12 91.5C8.98137 91.5 8.69637 93.1402 9.71469 94C10.3831 94.5644 11.613 94.7926 13 94" stroke="#D63C61"/>
<path d="M33.5 29.8207C47.5 -8.67929 32 -7.17929 24.5 25.8207" stroke="#D63C61"/>
<path d="M30.6618 15.2229C29.2556 19.4115 28.9645 23.0919 30.0116 23.4435C31.0587 23.795 33.0476 20.6846 34.4538 16.496C35.86 12.3075 36.1511 8.62706 35.104 8.2755C34.0569 7.92394 32.068 11.0344 30.6618 15.2229Z" fill="#FFC2D0"/>
<path d="M33.5 29.5C40.5 36.5 36.5647 44.7239 29.0646 51.2239M28.9999 51C34.0109 58.6533 39.1773 68.7987 41 77.355M23.4999 80.8207V92.8207M23.4999 92.8207V94.3207C25.2572 98.2367 26.2425 97.0593 27.9999 94.3207C38.4065 95.0643 41.9267 89.9138 41.6736 82.5M23.4999 92.8207H19.9999M41 77.355C45 74 49 84 41.6736 82.5M41 77.355L41.6736 82.5M30.5 81.5C29.4499 83.722 29.0924 85.3268 29.4999 87.0958C29.7368 88.124 30.2321 89.2076 31 90.5C29.0236 91.7289 28.4857 92.5157 28 94" stroke="#D63C61"/>
<path d="M15.5 25.5C18.677 23.7365 22 24.5 25 26" stroke="#D63C61"/>
<path d="M22 40C22 40.5523 21.1046 41 20 41C18.8954 41 18 40.5523 18 40C18 39.4477 18.8954 39 20 39C21.1046 39 22 39.4477 22 40Z" fill="#D63C61"/>
<path d="M20 41V43C20 43 18.5 44.5 18 43" stroke="#D63C61"/>
<path d="M20 41V43.25C20 43.25 21.5 44.6875 22 43" stroke="#D63C61"/>
<path d="M30 39C28.2304 41.2458 27.3999 40.7542 26 39" stroke="#D63C61"/>
<circle cx="11" cy="39" r="1" fill="#D63C61"/>
<circle cx="28" cy="39" r="1" fill="#D63C61"/>
<path d="M9 39C10.3452 40.5026 11.1991 40.6542 13 39" stroke="#D63C61"/>
<path d="M6.99999 29.5C-1.35899e-05 36.5 2.99997 44.5 10.5 51M10.5 50.8207C2.5 64.5 12 93.1414 13 94.3207C14 95.5 14.8945 98.2367 16.6518 94.3207V92.8207M16.6518 80.8207V92.8207M16.6518 92.8207H20.1518" stroke="#D63C61"/>
</svg>
