<svg width="69" height="62" viewBox="0 0 69 62" fill="none" xmlns="http://www.w3.org/2000/svg">
<path d="M17.5 32.6797C17.5 37.8489 16.9183 43.0105 12.5 43.0105C7.5 45.5105 0 38.4787 0 32.6797C0 26.8807 3 22.1105 6 20.0105C11 16.5105 17.5 27.5105 17.5 32.6797Z" fill="#D63C61"/>
<path d="M31.1182 16.1802C30.2206 21.2709 28.7514 26.253 24.4003 25.4858C19.0421 27.0796 12.8771 18.8522 13.8841 13.1413C14.8911 7.43044 18.6738 3.25364 21.9929 1.7065C27.5247 -0.872085 32.0158 11.0895 31.1182 16.1802Z" fill="#D63C61"/>
<path d="M35.3172 16.5158C36.2148 21.6065 37.684 26.5887 42.0351 25.8214C47.3933 27.4152 53.5583 19.1879 52.5513 13.477C51.5443 7.76609 47.7616 3.58928 44.4425 2.04214C38.9107 -0.536444 34.4195 11.4251 35.3172 16.5158Z" fill="#D63C61"/>
<path d="M51 32.3441C51 37.5133 51.5817 42.6749 56 42.6749C61 45.1749 68.5 38.1431 68.5 32.3441C68.5 26.5451 65.5 21.7749 62.5 19.6749C57.5 16.1749 51 27.1749 51 32.3441Z" fill="#D63C61"/>
<path d="M48 46.5C52 54.5 42.5 61.5 33.5 61.5C24.4999 61.5 13.5 53.5 19 46.5C24.4999 39.5 25.4918 31.5 33.5 31.5C41.5081 31.5 43.9999 38.5 48 46.5Z" fill="#D63C61"/>
<path d="M26 47.5L33.2599 56C36.4614 52.7116 39.9332 51.1936 41.5074 47.0994C42.134 43.7318 40.5 41.5 39.5 41.0091C38.5 40.5183 34.1487 40.9258 33.8961 43.8201C32.9403 40.7835 32.6792 40.9917 28.5 41.0091C25.661 43.1338 26 47.5 26 47.5Z" fill="white"/>
</svg>
