<svg width="69" height="62" viewBox="0 0 69 62" fill="none" xmlns="http://www.w3.org/2000/svg">
<path d="M17.5 32.6797C17.5 37.8489 16.9278 42.5 12.5 43.0105C8.0722 43.521 0 38.4787 0 32.6797C0 26.8807 3 22.1105 6 20.0105C11 16.5105 17.5 27.5105 17.5 32.6797Z" fill="#D63C61"/>
<path d="M31.1182 16.1802C30.2206 21.2709 28.9278 25.5 24.4278 25.5C19.4278 26 12.8771 18.8522 13.8841 13.1413C14.8911 7.43044 18.6738 3.25364 21.9929 1.70649C27.5247 -0.872086 32.0158 11.0895 31.1182 16.1802Z" fill="#D63C61"/>
<path d="M35.3172 16.5158C36.2148 21.6065 37.9278 25.5 42.0351 25.8214C47.9278 26.5 53.5583 19.1879 52.5513 13.477C51.5443 7.76608 47.7616 3.58928 44.4425 2.04213C38.9107 -0.536445 34.4195 11.4251 35.3172 16.5158Z" fill="#D63C61"/>
<path d="M51 32.3441C51 37.5133 50.5723 40.3497 56 42.6749C61.4278 45 68.5 38.1431 68.5 32.3441C68.5 26.5451 65.5 21.7749 62.5 19.6749C57.5 16.1749 51 27.1749 51 32.3441Z" fill="#D63C61"/>
<path d="M48 46.5C52 54.5 42.5 61.5 33.5 61.5C24.4999 61.5 13.5 53.5 19 46.5C24.4999 39.5 25.4918 31.5 33.5 31.5C41.5081 31.5 43.9999 38.5 48 46.5Z" fill="#D63C61"/>
<path d="M26.2319 46.8057C26.9278 48 33.4918 55.3057 33.4918 55.3057C36.6933 52.0173 40.1651 50.4992 41.7393 46.405C42.9508 42.9631 41.6152 40.6934 39.7319 40.3148C37.8486 39.9363 34.3806 40.2314 34.128 43.1258C33.3004 39.923 31.5838 39.6027 28.7319 40.3148C25.8801 41.027 25.536 45.6114 26.2319 46.8057Z" fill="white"/>
</svg>
